{"title":"Orc.Wars.2013.BRRip.X264.AC3 - BiTo","uid":8973630,"size":1259293421,"categoryP":"video","categoryS":"movies","magnet":"?xt=urn:btih:3b2ba6c6587f9287b4cc2ff77a88c243bc10e59e&amp;dn=Orc.Wars.2013.BRRip.X264.AC3+-+BiTo&amp;tr=udp%3A%2F%2Ftracker.openbittorrent.com%3A80&amp;tr=udp%3A%2F%2Fopen.demonii.com%3A1337&amp;tr=udp%3A%2F%2Ftracker.coppersurfer.tk%3A6969&amp;tr=udp%3A%2F%2Fexodus.desync.com%3A6969","seeders":0,"leechers":1,"uploader":"xxxlavalxxx","files":-1,"time":1380385751,"description":" &lt;a href=&quot;http://www.imdb.com/title/tt2333508/&quot; rel=&quot;nofollow&quot; target=&quot;_NEW&quot;&gt;http://www.imdb.com/title/tt2333508/&lt;/a&gt;\n\n\n\nA battle-weary ex-Special Forces Operative buys a ranch in remote American West to flee from the world, and encounters a strange series of trespassers, including a beautiful elf princess and a Native American mystic and Orcs. When the Orcs invade his property, John must give up his isolation to become a hero, before the Orcs unleash their dragon god on our world. \n\n\nDirector: Kohl Glass\nWriters: Jason Faller (story), Kohl Glass\nStars: Rusty Joiner, Masiela Lusha, Wesley John \n\nGenres: Action | Adventure | Fantasy\nCountry: USA\nLanguage: English\n\n\nSource: BluRay\nSample: Yes\nAudio: Ac3 @ 6 Ch Eng\nCodec: X264\nContainer: Mkv\n\nVideo\nID                                       : 1\nFormat                                   : AVC\nFormat/Info                              : Advanced Video Codec\nFormat profile                           : &lt;a class=&quot;__cf_email__&quot; href=&quot;/cdn-cgi/l/email-protection&quot; data-cfemail=&quot;4800212f2008047b6678&quot;&gt;[email&amp;#160;protected]&lt;/a&gt;&lt;script cf-hash='f9e31' type=&quot;text/javascript&quot;&gt;\n/* &lt;![CDATA[ */!function(){try{var t=&quot;currentScript&quot;in document?document.currentScript:function(){for(var t=document.getElementsByTagName(&quot;script&quot;),e=t.length;e--;)if(t[e].getAttribute(&quot;cf-hash&quot;))return t[e]}();if(t&amp;&amp;t.previousSibling){var e,r,n,i,c=t.previousSibling,a=c.getAttribute(&quot;data-cfemail&quot;);if(a){for(e=&quot;&quot;,r=parseInt(a.substr(0,2),16),n=2;a.length-n;n+=2)i=parseInt(a.substr(n,2),16)^r,e+=String.fromCharCode(i);e=document.createTextNode(e),c.parentNode.replaceChild(e,c)}}}catch(u){}}();/* ]]&gt; */&lt;/script&gt;\nFormat settings, CABAC                   : Yes\nFormat settings, ReFrames                : 4 frames\nCodec ID                                 : V_MPEG4/ISO/AVC\nDuration                                 : 1h 37mn\nBit rate                                 : 1 228 Kbps\nNominal bit rate                         : 1 300 Kbps\nWidth                                    : 720 pixels\nHeight                                   : 400 pixels\nDisplay aspect ratio                     : 16:9\nFrame rate mode                          : Constant\nFrame rate                               : 23.976 fps\nColor space                              : YUV\nChroma subsampling                       : 4:2:0\nBit depth                                : 8 bits\nScan type                                : Progressive\nBits/(Pixel*Frame)                       : 0.178\nStream size                              : 856 MiB (72%)\nWriting library                          : x264 core 120\nDefault                                  : Yes\nForced                                   : No\nColor primaries                          : BT.709\nTransfer characteristics                 : BT.709\nMatrix coefficients                      : BT.709\n\nAudio\nID                                       : 2\nFormat                                   : AC-3\nFormat/Info                              : Audio Coding 3\nMode extension                           : CM (complete main)\nFormat settings, Endianness              : Big\nCodec ID                                 : A_AC3\nDuration                                 : 1h 37mn\nBit rate mode                            : Constant\nBit rate                                 : 448 Kbps\nChannel count                            : 6 channels\nChannel positions                        : Front: L C R, Side: L R, LFE\nSampling rate                            : 48.0 KHz\nBit depth                                : 16 bits\nCompression mode                         : Lossy\nStream size                              : 312 MiB (26%)\nLanguage                                 : English\nDefault                                  : Yes\nForced                                   : No\n\n\n &lt;a href=&quot;\nhttp://bayimg.com/naAmcaAFc&quot; rel=&quot;nofollow&quot; target=&quot;_NEW&quot;&gt;\nhttp://bayimg.com/naAmcaAFc&lt;/a&gt;\nNaAMDAaFc","torrent":{"xt":"urn:btih:3b2ba6c6587f9287b4cc2ff77a88c243bc10e59e","amp;dn":"Orc.Wars.2013.BRRip.X264.AC3+-+BiTo","amp;tr":["udp%3A%2F%2Ftracker.openbittorrent.com%3A80","udp%3A%2F%2Fopen.demonii.com%3A1337","udp%3A%2F%2Ftracker.coppersurfer.tk%3A6969","udp%3A%2F%2Fexodus.desync.com%3A6969"],"infoHash":"3b2ba6c6587f9287b4cc2ff77a88c243bc10e59e","infoHashBuffer":{"type":"Buffer","data":[59,43,166,198,88,127,146,135,180,204,47,247,122,136,194,67,188,16,229,158]},"announce":[],"urlList":[]}}